<svg xmlns="http://www.w3.org/2000/svg" viewBox="0 0 504 365" width="504" height="365">

  <!-- TOP STRIPE -->
  <path fill="#2ecc52" d="
    M 78,131
    C 92,107 108,75 116,57
    L 126,39
    C 134,25 143,14 156,9
    C 168,4 186,2 204,3
    L 501,3
    L 485,40
    C 477,55 471,64 461,74
    C 451,84 439,92 424,95
    L 162,98
    C 148,98 136,101 123,108
    C 110,115 94,126 78,134
    Z
  "/>

  <!-- BOTTOM STRIPE -->
  <path fill="#2ecc52" d="
    M 1,361
    L 84,188
    C 89,177 96,166 107,157
    C 118,148 132,141 148,139
    L 420,138
    C 407,161 397,180 383,196
    C 372,209 362,218 348,225
    L 193,230
    C 177,230 164,234 153,244
    C 142,254 131,271 119,296
    C 113,309 108,321 99,334
    C 90,346 79,354 66,358
    L 1,363
    Z
  "/>

</svg>